HIERARCHY
ROOT Hips
{
    OFFSET   0.000000   0.000000   0.000000
    CHANNELS 6 Xposition Yposition Zposition Zrotation Xrotation Yrotation
    JOINT Chest
    {
        OFFSET   0.000000   8.007240   0.000000
        CHANNELS 3 Zrotation Xrotation Yrotation
        JOINT Chest2
        {
            OFFSET   0.000000  22.077100   0.000000
            CHANNELS 3 Zrotation Xrotation Yrotation
            JOINT Neck
            {
                OFFSET   0.000000  23.254800   0.000000
                CHANNELS 3 Zrotation Xrotation Yrotation
                JOINT Head
                {
                    OFFSET   0.000000  14.370000   1.956600
                    CHANNELS 3 Zrotation Xrotation Yrotation
                    End Site
                    {
                        OFFSET   0.000000  19.566000   0.000000
                    }
                }
            }
            JOINT LeftCollar
            {
                OFFSET   3.911900  19.017000  -0.467064
                CHANNELS 3 Zrotation Xrotation Yrotation
                JOINT LeftShoulder
                {
                    OFFSET  10.383700   0.000000   0.000000
                    CHANNELS 3 Zrotation Xrotation Yrotation
                    JOINT LeftElbow
                    {
                        OFFSET  26.662100   0.001476   0.000517
                        CHANNELS 3 Zrotation Xrotation Yrotation
                        JOINT LeftWrist
                        {
                            OFFSET  28.869000  -0.000025  -0.000106
                            CHANNELS 3 Zrotation Xrotation Yrotation
                            JOINT LeftFinger0
                            {
                                OFFSET   2.044660  -2.323460   3.252850
                                CHANNELS 3 Zrotation Xrotation Yrotation
                                JOINT LeftFinger01
                                {
                                    OFFSET   3.088130   0.000000   0.000000
                                    CHANNELS 3 Zrotation Xrotation Yrotation
                                    JOINT LeftFinger02
                                    {
                                        OFFSET   2.639460   0.000000   0.000000
                                        CHANNELS 3 Zrotation Xrotation Yrotation
                                        End Site
                                        {
                                            OFFSET   2.582190   0.000000   0.000000
                                        }
                                    }
                                }
                            }
                            JOINT LeftFinger1
                            {
                                OFFSET   8.364480   0.000000   3.252850
                                CHANNELS 3 Zrotation Xrotation Yrotation
                                JOINT LeftFinger11
                                {
                                    OFFSET   4.646930   0.000000   0.000000
                                    CHANNELS 3 Zrotation Xrotation Yrotation
                                    JOINT LeftFinger12
                                    {
                                        OFFSET   2.323460   0.000000   0.000000
                                        CHANNELS 3 Zrotation Xrotation Yrotation
                                        End Site
                                        {
                                            OFFSET   2.273050   0.000000   0.000000
                                        }
                                    }
                                }
                            }
                            JOINT LeftFinger2
                            {
                                OFFSET   8.364490   0.000015   1.078090
                                CHANNELS 3 Zrotation Xrotation Yrotation
                                JOINT LeftFinger21
                                {
                                    OFFSET   5.111620   0.000000   0.000000
                                    CHANNELS 3 Zrotation Xrotation Yrotation
                                    JOINT LeftFinger22
                                    {
                                        OFFSET   2.788160   0.000016   0.000000
                                        CHANNELS 3 Zrotation Xrotation Yrotation
                                        End Site
                                        {
                                            OFFSET   2.727660   0.000000   0.000000
                                        }
                                    }
                                }
                            }
                            JOINT LeftFinger3
                            {
                                OFFSET   7.899780   0.000017  -1.078090
                                CHANNELS 3 Zrotation Xrotation Yrotation
                                JOINT LeftFinger31
                                {
                                    OFFSET   4.646930   0.000000   0.000000
                                    CHANNELS 3 Zrotation Xrotation Yrotation
                                    JOINT LeftFinger32
                                    {
                                        OFFSET   2.323470   0.000000   0.000000
                                        CHANNELS 3 Zrotation Xrotation Yrotation
                                        End Site
                                        {
                                            OFFSET   2.273050   0.000000   0.000000
                                        }
                                    }
                                }
                            }
                            JOINT LeftFinger4
                            {
                                OFFSET   7.435090   0.000000  -3.252850
                                CHANNELS 3 Zrotation Xrotation Yrotation
                                JOINT LeftFinger41
                                {
                                    OFFSET   3.717550   0.000000   0.000000
                                    CHANNELS 3 Zrotation Xrotation Yrotation
                                    JOINT LeftFinger42
                                    {
                                        OFFSET   1.858770   0.000000   0.000000
                                        CHANNELS 3 Zrotation Xrotation Yrotation
                                        End Site
                                        {
                                            OFFSET   1.818440   0.000000   0.000000
                                        }
                                    }
                                }
                            }
                        }
                    }
                }
            }
            JOINT RightCollar
            {
                OFFSET  -3.911900  19.017000  -0.467063
                CHANNELS 3 Zrotation Xrotation Yrotation
                JOINT RightShoulder
                {
                    OFFSET -10.383700   0.000019   0.000000
                    CHANNELS 3 Zrotation Xrotation Yrotation
                    JOINT RightElbow
                    {
                        OFFSET -26.662100   0.001175   0.000102
                        CHANNELS 3 Zrotation Xrotation Yrotation
                        JOINT RightWrist
                        {
                            OFFSET -28.869000   0.000016  -0.000079
                            CHANNELS 3 Zrotation Xrotation Yrotation
                            JOINT RightFinger0
                            {
                                OFFSET  -2.044660  -2.323490   3.252850
                                CHANNELS 3 Zrotation Xrotation Yrotation
                                JOINT RightFinger01
                                {
                                    OFFSET  -3.088140   0.000000   0.000000
                                    CHANNELS 3 Zrotation Xrotation Yrotation
                                    JOINT RightFinger02
                                    {
                                        OFFSET  -2.639460   0.000000   0.000000
                                        CHANNELS 3 Zrotation Xrotation Yrotation
                                        End Site
                                        {
                                            OFFSET  -2.582190   0.000000   0.000000
                                        }
                                    }
                                }
                            }
                            JOINT RightFinger1
                            {
                                OFFSET  -8.364480   0.000000   3.252850
                                CHANNELS 3 Zrotation Xrotation Yrotation
                                JOINT RightFinger11
                                {
                                    OFFSET  -4.646930   0.000000   0.000000
                                    CHANNELS 3 Zrotation Xrotation Yrotation
                                    JOINT RightFinger12
                                    {
                                        OFFSET  -2.323470   0.000000   0.000000
                                        CHANNELS 3 Zrotation Xrotation Yrotation
                                        End Site
                                        {
                                            OFFSET  -2.273050   0.000000   0.000000
                                        }
                                    }
                                }
                            }
                            JOINT RightFinger2
                            {
                                OFFSET  -8.364480   0.000000   1.078090
                                CHANNELS 3 Zrotation Xrotation Yrotation
                                JOINT RightFinger21
                                {
                                    OFFSET  -5.111620   0.000000   0.000000
                                    CHANNELS 3 Zrotation Xrotation Yrotation
                                    JOINT RightFinger22
                                    {
                                        OFFSET  -2.788160   0.000000   0.000000
                                        CHANNELS 3 Zrotation Xrotation Yrotation
                                        End Site
                                        {
                                            OFFSET  -2.727660   0.000000   0.000000
                                        }
                                    }
                                }
                            }
                            JOINT RightFinger3
                            {
                                OFFSET  -7.899780   0.000000  -1.078090
                                CHANNELS 3 Zrotation Xrotation Yrotation
                                JOINT RightFinger31
                                {
                                    OFFSET  -4.646930   0.000000   0.000000
                                    CHANNELS 3 Zrotation Xrotation Yrotation
                                    JOINT RightFinger32
                                    {
                                        OFFSET  -2.323470   0.000000   0.000000
                                        CHANNELS 3 Zrotation Xrotation Yrotation
                                        End Site
                                        {
                                            OFFSET  -2.273050   0.000000   0.000000
                                        }
                                    }
                                }
                            }
                            JOINT RightFinger4
                            {
                                OFFSET  -7.435090   0.000000  -3.252850
                                CHANNELS 3 Zrotation Xrotation Yrotation
                                JOINT RightFinger41
                                {
                                    OFFSET  -3.717550   0.000000   0.000000
                                    CHANNELS 3 Zrotation Xrotation Yrotation
                                    JOINT RightFinger42
                                    {
                                        OFFSET  -1.858770   0.000000   0.000000
                                        CHANNELS 3 Zrotation Xrotation Yrotation
                                        End Site
                                        {
                                            OFFSET  -1.818440   0.000000   0.000000
                                        }
                                    }
                                }
                            }
                        }
                    }
                }
            }
        }
    }
    JOINT LeftHip
    {
        OFFSET   9.783040   0.000000   0.000000
        CHANNELS 3 Zrotation Xrotation Yrotation
        JOINT LeftKnee
        {
            OFFSET   0.000032 -41.789100  -0.002222
            CHANNELS 3 Zrotation Xrotation Yrotation
            JOINT LeftAnkle
            {
                OFFSET   0.000087 -41.133200  -0.000135
                CHANNELS 3 Zrotation Xrotation Yrotation
                JOINT LeftToe
                {
                    OFFSET   0.000000  -6.358960  14.674500
                    CHANNELS 3 Zrotation Xrotation Yrotation
                    End Site
                    {
                        OFFSET   0.000000   0.000000   3.913200
                    }
                }
            }
        }
    }
    JOINT RightHip
    {
        OFFSET  -9.783040   0.000000   0.000000
        CHANNELS 3 Zrotation Xrotation Yrotation
        JOINT RightKnee
        {
            OFFSET   0.000047 -41.789100  -0.000896
            CHANNELS 3 Zrotation Xrotation Yrotation
            JOINT RightAnkle
            {
                OFFSET  -0.000117 -41.133300  -0.000248
                CHANNELS 3 Zrotation Xrotation Yrotation
                JOINT RightToe
                {
                    OFFSET   0.000000  -6.358970  14.674500
                    CHANNELS 3 Zrotation Xrotation Yrotation
                    End Site
                    {
                        OFFSET   0.000000   0.000000   3.913200
                    }
                }
            }
        }
    }
}
MOTION
Frames: 4
Frame Time:   0.016667
  2.436210  89.416300   1.785340   2.977260 -15.986400  10.693900  -1.942090  12.849600   4.041410  -5.031110  25.512900   8.885540  -4.300390   4.093630   0.307521  -7.164540   8.161450 -12.162700  -7.447590  -5.206140   6.285610 -70.067100  15.985900 -11.258000  -0.379733  -1.167670 -14.530300  10.881300  -4.878150  -3.133050  39.182000  29.817000 -54.679000 -30.297900   0.001546   0.000946 -10.147800   0.000142   0.001335 -31.902000   0.745231  -1.197020 -26.107900   0.001151  -0.000916 -18.275600   0.000753  -0.000358 -29.384100  -3.743460   6.617490 -44.400700   0.002157  -0.000776 -29.570800   0.000000  -0.004489 -26.891400  -4.324590   8.457320 -27.877500  -0.000330  -0.002613 -18.566400   0.000000  -0.000146 -28.536300  -4.566600   8.329800 -43.303400   0.003090   0.000100 -28.840100   0.000747   0.002116   3.296200  -4.175960  11.019800  69.191900  16.071700  51.423300  -0.960227 -23.884200 104.113000 -44.300800 -56.764600 -48.113400 -59.040300  54.333300 108.293000 -17.110000  -0.003290  -0.001052 -13.555000  -0.004583   0.004821  44.235700  11.491500  11.559300  37.147900   0.003270  -0.005349  27.092000   0.002944  -0.001656  75.937900   0.000000  -0.004030  75.937900  -0.005840   0.000736  56.953400  -0.002761   0.000474  79.648200  -4.918630  -0.897511  79.686800  -0.004938  -0.001655  59.765100  -0.000770  -0.000061  69.257400  -9.363580  -3.526290 104.319000  -0.005885  -0.003222  69.476700   0.002851   0.006704   1.863730  17.555900  -1.905420   0.620813   1.456250   6.966760  -3.566390  -3.018300  -2.892390   0.000000   0.000000  -0.000000  -2.380550  19.649200  -6.616850   0.437306   2.639540 -13.723500   1.147120  -5.248120   0.100332  -0.000000   0.000000  -0.000000
  2.434830  89.411400   1.810920   2.963110 -15.944600  10.702400  -1.933110  12.854400   4.017010  -5.008580  25.524300   8.833100  -4.327420   4.038270   0.305453  -7.205290   8.048830 -12.108800  -7.452530  -5.214840   6.321330 -70.089200  15.984900 -11.290700  -0.381451  -1.169260 -14.631800  10.866300  -4.931930  -3.134750  39.197100  29.855500 -54.726700 -30.296600   0.001515   0.000923 -10.148200   0.000141   0.001281 -31.938000   0.735999  -1.180610 -26.137300   0.001138  -0.000906 -18.296100   0.000714  -0.000372 -29.378900  -3.743460   6.618960 -44.393000   0.002157  -0.000768 -29.565700   0.000000  -0.004483 -26.881500  -4.342890   8.494030 -27.848900  -0.000296  -0.002622 -18.547300   0.000000  -0.000160 -28.521600  -4.585140   8.366330 -43.286500   0.003066   0.000091 -28.828800   0.000758   0.002067   3.297920  -4.113990  11.051900  69.202400  16.172300  51.440900  -0.908804 -23.776300 104.801000 -44.236200 -56.636400 -47.997900 -59.040300  54.333300 108.293000 -16.800900  -0.003298  -0.000981 -13.400400  -0.004589   0.004829  44.130600  11.492300  11.601800  37.065600   0.003303  -0.005503  27.013300   0.002973  -0.001621  75.808700   0.000000  -0.003912  75.808700  -0.005722   0.000820  56.856600  -0.002591   0.000505  79.529600  -4.919030  -0.907567  79.568600  -0.004889  -0.001613  59.676500  -0.000666   0.000017  69.067100  -9.351620  -3.557110 104.037000  -0.005897  -0.003163  69.288800   0.002889   0.006896   1.883100  17.535700  -1.889580   0.620789   1.439780   6.937500  -3.574630  -3.020540  -2.892480  -0.000000   0.000000   0.000000  -2.363650  19.624800  -6.639470   0.442550   2.630080 -13.712000   1.139410  -5.254570   0.092746   0.000000   0.000000   0.000000
  2.431000  89.404900   1.837730   2.950450 -15.908100  10.710600  -1.925040  12.856800   3.990160  -4.984140  25.531300   8.775600  -4.352210   3.998210   0.304276  -7.243090   7.966810 -12.053500  -7.451770  -5.227240   6.353450 -70.102000  15.988100 -11.316900  -0.386903  -1.183780 -14.713100  10.845900  -4.960460  -3.135680  39.224800  29.921600 -54.809500 -30.296000   0.001480   0.000910 -10.149200   0.000139   0.001225 -31.960000   0.727479  -1.165820 -26.155200   0.001125  -0.000898 -18.308600   0.000673  -0.000388 -29.357400  -3.743410   6.625000 -44.361000   0.002157  -0.000756 -29.544400   0.000000  -0.004478 -26.860900  -4.357810   8.532380 -27.769500  -0.000261  -0.002628 -18.494500   0.000000  -0.000175 -28.478000  -4.597860   8.406170 -43.224200   0.003041   0.000075 -28.787300   0.000763   0.002022   3.297310  -4.060840  11.080200  69.065600  16.321500  51.492800  -0.872027 -23.833200 105.219000 -44.318900 -56.426000 -47.964200 -59.040300  54.333300 108.293000 -15.710500  -0.003306  -0.000856 -12.855200  -0.004597   0.004838  43.935800  11.493100  11.680500  36.912800   0.003336  -0.005656  26.867300   0.003002  -0.001585  75.679500   0.000000  -0.003778  75.679600  -0.005604   0.000903  56.759700  -0.002425   0.000537  79.411000  -4.919320  -0.917622  79.450500  -0.004838  -0.001571  59.587900  -0.000566   0.000094  68.846000  -9.338440  -3.592880 103.709000  -0.005910  -0.003102  69.070400   0.002929   0.007087   1.903810  17.527200  -1.875810   0.621004   1.413760   6.913780  -3.585260  -3.020860  -2.892560  -0.000000   0.000000  -0.000000  -2.346480  19.607300  -6.654760   0.445581   2.620220 -13.700000   1.131520  -5.264940   0.079039   0.000000   0.000000   0.000000
  2.423870  89.397400   1.865690   2.937790 -15.880800  10.711000  -1.921160  12.856500   3.965330  -4.968680  25.532600   8.723020  -4.365150   3.977140   0.303408  -7.263190   7.924060 -12.012700  -7.444820  -5.232610   6.379600 -70.075000  16.069500 -11.353900  -0.415756  -1.266640 -14.767100  10.833300  -4.903540  -3.136570  39.260200  29.994200 -54.901700 -30.294300   0.001441   0.000909 -10.150400   0.000134   0.001176 -31.948200   0.723420  -1.158710 -26.145400   0.001111  -0.000892 -18.301800   0.000634  -0.000413 -29.306600  -3.743310   6.639270 -44.285500   0.002151  -0.000738 -29.494100  -0.000027  -0.004468 -26.826600  -4.360000   8.554460 -27.628200  -0.000229  -0.002632 -18.400400   0.000000  -0.000190 -28.388900  -4.593700   8.433620 -43.091700   0.003015   0.000031 -28.699100   0.000754   0.001997   3.295700  -4.026790  11.099500  68.819800  16.479900  51.618400  -0.828691 -24.079100 105.395000 -44.508200 -56.112600 -48.031200 -59.040300  54.333300 108.293000 -13.374400  -0.003311  -0.000740 -11.687200  -0.004605   0.004843  43.729700  11.492600  11.764000  36.751000   0.003374  -0.005805  26.712800   0.003034  -0.001563  75.700600   0.000000  -0.003621  75.700700  -0.005497   0.000987  56.775500  -0.002256   0.000571  79.455300  -4.919610  -0.913805  79.494600  -0.004785  -0.001539  59.620900  -0.000473   0.000167  68.810000  -9.337010  -3.598640 103.656000  -0.005924  -0.003035  69.034900   0.002978   0.007285   1.924530  17.528300  -1.869170   0.618722   1.383150   6.901300  -3.597720  -3.020750  -2.890350  -0.000000   0.000000  -0.000000  -2.334350  19.599200  -6.652380   0.450708   2.605950 -13.692500   1.124400  -5.272360   0.062228  -0.000000   0.000000   0.000000
